<svg height="128" width="128" viewBox="0 0 25 25" role="img"><path fill="#ffffff" d="M0,0 h25v25H0z" shape-rendering="crispEdges"></path><path fill="#000000" d="M0 0h7v1H0zM8 0h2v1H8zM12 0h1v1H12zM15 0h2v1H15zM18,0 h7v1H18zM0 1h1v1H0zM6 1h1v1H6zM11 1h4v1H11zM16 1h1v1H16zM18 1h1v1H18zM24,1 h1v1H24zM0 2h1v1H0zM2 2h3v1H2zM6 2h1v1H6zM9 2h4v1H9zM16 2h1v1H16zM18 2h1v1H18zM20 2h3v1H20zM24,2 h1v1H24zM0 3h1v1H0zM2 3h3v1H2zM6 3h1v1H6zM8 3h1v1H8zM10 3h1v1H10zM13 3h1v1H13zM15 3h1v1H15zM18 3h1v1H18zM20 3h3v1H20zM24,3 h1v1H24zM0 4h1v1H0zM2 4h3v1H2zM6 4h1v1H6zM8 4h1v1H8zM11 4h2v1H11zM14 4h2v1H14zM18 4h1v1H18zM20 4h3v1H20zM24,4 h1v1H24zM0 5h1v1H0zM6 5h1v1H6zM8 5h2v1H8zM12 5h1v1H12zM18 5h1v1H18zM24,5 h1v1H24zM0 6h7v1H0zM8 6h1v1H8zM10 6h1v1H10zM12 6h1v1H12zM14 6h1v1H14zM16 6h1v1H16zM18,6 h7v1H18zM8 7h3v1H8zM12 7h1v1H12zM0 8h1v1H0zM4 8h1v1H4zM6 8h4v1H6zM11 8h1v1H11zM16 8h6v1H16zM24,8 h1v1H24zM0 9h3v1H0zM4 9h1v1H4zM9 9h1v1H9zM11 9h3v1H11zM15 9h2v1H15zM20 9h2v1H20zM23 9h1v1H23zM2 10h1v1H2zM6 10h1v1H6zM10 10h1v1H10zM12 10h1v1H12zM14 10h6v1H14zM21 10h2v1H21zM0 11h1v1H0zM2 11h2v1H2zM9 11h4v1H9zM19 11h2v1H19zM22 11h2v1H22zM0 12h2v1H0zM3 12h2v1H3zM6 12h1v1H6zM8 12h2v1H8zM15 12h1v1H15zM17 12h3v1H17zM21,12 h4v1H21zM0 13h1v1H0zM2 13h1v1H2zM4 13h2v1H4zM7 13h1v1H7zM9 13h2v1H9zM12 13h1v1H12zM14 13h2v1H14zM20 13h1v1H20zM23 13h1v1H23zM3 14h1v1H3zM5 14h2v1H5zM9 14h1v1H9zM11 14h12v1H11zM4 15h1v1H4zM8 15h4v1H8zM14 15h1v1H14zM16 15h1v1H16zM19 15h2v1H19zM22 15h2v1H22zM0 16h3v1H0zM6 16h3v1H6zM12 16h1v1H12zM16 16h7v1H16zM8 17h1v1H8zM10 17h1v1H10zM14 17h3v1H14zM20 17h1v1H20zM0 18h7v1H0zM8 18h3v1H8zM13 18h2v1H13zM16 18h1v1H16zM18 18h1v1H18zM20 18h1v1H20zM0 19h1v1H0zM6 19h1v1H6zM9 19h2v1H9zM12 19h1v1H12zM14 19h1v1H14zM16 19h1v1H16zM20 19h4v1H20zM0 20h1v1H0zM2 20h3v1H2zM6 20h1v1H6zM8 20h2v1H8zM11 20h2v1H11zM16 20h7v1H16zM0 21h1v1H0zM2 21h3v1H2zM6 21h1v1H6zM9 21h1v1H9zM12 21h1v1H12zM14 21h2v1H14zM17 21h3v1H17zM22,21 h3v1H22zM0 22h1v1H0zM2 22h3v1H2zM6 22h1v1H6zM10 22h3v1H10zM14 22h1v1H14zM16 22h1v1H16zM18 22h1v1H18zM21 22h1v1H21zM23 22h1v1H23zM0 23h1v1H0zM6 23h1v1H6zM9 23h2v1H9zM15 23h1v1H15zM17 23h7v1H17zM0 24h7v1H0zM8 24h1v1H8zM10 24h1v1H10zM15 24h1v1H15zM18 24h1v1H18zM22,24 h3v1H22z" shape-rendering="crispEdges"></path></svg>
